<?xml version="1.0" encoding="UTF-8" standalone="no"?>
<svg
   width="2100"
   height="2100"
   viewBox="0 0 2100 2100"
   version="1.1"
   id="svg2"
   sodipodi:docname="plus_icon.svg"
   inkscape:version="1.3 (0e150ed, 2023-07-21)"
   xmlns:inkscape="http://www.inkscape.org/namespaces/inkscape"
   xmlns:sodipodi="http://sodipodi.sourceforge.net/DTD/sodipodi-0.dtd"
   xmlns="http://www.w3.org/2000/svg"
   xmlns:svg="http://www.w3.org/2000/svg">
  <defs
     id="defs2" />
  <sodipodi:namedview
     id="namedview2"
     pagecolor="#ffffff"
     bordercolor="#000000"
     borderopacity="0.25"
     inkscape:showpageshadow="2"
     inkscape:pageopacity="0.0"
     inkscape:pagecheckerboard="0"
     inkscape:deskcolor="#d1d1d1"
     inkscape:zoom="0.15876151"
     inkscape:cx="721.20757"
     inkscape:cy="1300.6931"
     inkscape:window-width="1440"
     inkscape:window-height="900"
     inkscape:window-x="0"
     inkscape:window-y="0"
     inkscape:window-maximized="0"
     inkscape:current-layer="svg2" />
  <path
     fill-rule="nonzero"
     fill="rgb(0%, 0%, 0%)"
     fill-opacity="1"
     d="m 1047.7257,5.4393211 c -84.05745,0 -152.17707,68.1052349 -152.17707,152.1627889 V 1946.9253 c 0,84.0434 68.11962,152.1772 152.17707,152.1772 84.0575,0 152.1773,-68.1338 152.1773,-152.1772 V 157.60211 c 0,-84.057554 -68.1198,-152.1627889 -152.1773,-152.1627889 z m 0,0"
     id="path1"
     style="fill:#808080;stroke-width:3.66588" />
  <path
     fill-rule="nonzero"
     fill="rgb(0%, 0%, 0%)"
     fill-opacity="1"
     d="m 153.0498,900.05798 c -84.043218,0 -152.17710209,68.1482 -152.17710209,152.20572 0,40.3247 16.02393009,79.0314 44.56340209,107.5994 28.539478,28.5108 67.24605,44.5778 107.6137,44.5778 H 1942.416 c 40.3677,0 79.0743,-16.067 107.5993,-44.5778 28.5252,-28.568 44.5779,-67.2747 44.5779,-107.5994 0,-84.05752 -68.1482,-152.20572 -152.1772,-152.20572 z m 0,0"
     id="path2"
     style="fill:#808080;stroke-width:3.66588" />
</svg>
