<?xml version="1.0" encoding="UTF-8" standalone="no"?>
<!-- Created with Vectornator (http://vectornator.io/) -->

<svg
   height="100%"
   stroke-miterlimit="10"
   style="fill-rule:nonzero;clip-rule:evenodd;stroke-linecap:round;stroke-linejoin:round;"
   version="1.1"
   viewBox="0 0 1024 1024"
   width="100%"
   xml:space="preserve"
   id="svg4"
   sodipodi:docname="Profil_black.svg"
   inkscape:version="1.3 (0e150ed, 2023-07-21)"
   xmlns:inkscape="http://www.inkscape.org/namespaces/inkscape"
   xmlns:sodipodi="http://sodipodi.sourceforge.net/DTD/sodipodi-0.dtd"
   xmlns:xlink="http://www.w3.org/1999/xlink"
   xmlns="http://www.w3.org/2000/svg"
   xmlns:svg="http://www.w3.org/2000/svg"
   xmlns:vectornator="http://vectornator.io"><sodipodi:namedview
   id="namedview4"
   pagecolor="#ffffff"
   bordercolor="#000000"
   borderopacity="0.25"
   inkscape:showpageshadow="2"
   inkscape:pageopacity="0.0"
   inkscape:pagecheckerboard="0"
   inkscape:deskcolor="#d1d1d1"
   inkscape:zoom="0.49883543"
   inkscape:cx="399.9315"
   inkscape:cy="540.25834"
   inkscape:window-width="1440"
   inkscape:window-height="780"
   inkscape:window-x="0"
   inkscape:window-y="25"
   inkscape:window-maximized="0"
   inkscape:current-layer="g4" />&#10;<defs
   id="defs1"><linearGradient
     id="swatch4"
     inkscape:swatch="solid"><stop
       style="stop-color:#9c9c9c;stop-opacity:1;"
       offset="0"
       id="stop4" /></linearGradient><linearGradient
     inkscape:collect="always"
     xlink:href="#swatch4"
     id="linearGradient2"
     x1="344.5"
     y1="341"
     x2="659.5"
     y2="341"
     gradientUnits="userSpaceOnUse" /><linearGradient
     inkscape:collect="always"
     xlink:href="#swatch4"
     id="linearGradient4"
     gradientUnits="userSpaceOnUse"
     x1="219.57245"
     y1="682.30326"
     x2="776.18353"
     y2="682.30326" /></defs>&#10;&#10;<g
   id="g4"
   style="fill:#666666"><g
     id="Calque-2"
     vectornator:layerName="Calque 2"
     style="fill:#000000;stroke:#000000;stroke-opacity:1">&#10;<path
   d="M349.5 341C349.5 256.777 417.777 188.5 502 188.5C586.223 188.5 654.5 256.777 654.5 341C654.5 425.223 586.223 493.5 502 493.5C417.777 493.5 349.5 425.223 349.5 341Z"
   fill="#000000"
   fill-rule="nonzero"
   opacity="1"
   stroke="#000000"
   stroke-linecap="butt"
   stroke-linejoin="round"
   stroke-width="10"
   vectornator:layerName="Ovale 1"
   id="path1"
   style="fill:#000000;stroke:#000000;stroke-opacity:1" />&#10;</g><g
     id="Calque-3"
     vectornator:layerName="Calque 3"
     style="fill:#000000;stroke:#000000;stroke-opacity:1">&#10;<path
   d="M419.328 562.861L580.333 562.861L580.333 801.447L419.328 801.447L419.328 562.861Z"
   fill="#000000"
   fill-rule="nonzero"
   opacity="1"
   stroke="#000000"
   stroke-linecap="butt"
   stroke-linejoin="round"
   stroke-width="13.7023"
   vectornator:layerName="Rectangle 1"
   id="path2"
   style="fill:#000000;stroke:#000000;stroke-opacity:1" />&#10;<path
   d="M581.062 557.492C581.062 557.492 656.6 570.699 680.377 592.548C704.154 614.398 731.373 634.397 748.381 668.996C765.389 703.594 771.113 726.113 774.747 776.091C774.747 776.091 776.015 807.688 748.052 806.764C720.089 805.84 582.445 808.267 576.427 806.517"
   fill="#000000"
   fill-rule="nonzero"
   opacity="1"
   stroke="#000000"
   stroke-linecap="butt"
   stroke-linejoin="round"
   stroke-width="2.8537"
   vectornator:layerName="Courbe 1"
   id="path3"
   style="fill:#000000;stroke:#000000;stroke-opacity:1" />&#10;<path
   d="M418.519 557.492C418.519 557.492 339.155 570.699 315.379 592.548C291.602 614.398 264.383 634.397 247.374 668.996C230.366 703.594 224.643 726.113 221.009 776.091C221.009 776.091 219.74 807.688 247.703 806.764C275.666 805.84 413.31 808.267 419.328 806.517"
   fill="#000000"
   fill-rule="nonzero"
   opacity="1"
   stroke="#000000"
   stroke-linecap="butt"
   stroke-linejoin="round"
   stroke-width="2.8537"
   vectornator:layerName="Courbe 2"
   id="path4"
   style="fill:#000000;stroke:#000000;stroke-opacity:1" />&#10;</g></g>&#10;</svg>
